<svg width="18" height="17" viewBox="0 0 18 17" fill="none" xmlns="http://www.w3.org/2000/svg">
<path d="M16.0402 8.08335C16.0431 9.18323 15.7854 10.2682 15.2882 11.25C14.6986 12.4265 13.7923 13.416 12.6707 14.1077C11.5491 14.7995 10.2566 15.1662 8.93788 15.1667C7.83504 15.1695 6.74712 14.9126 5.76273 14.4167L1 16L2.58758 11.25C2.09036 10.2682 1.83269 9.18323 1.83557 8.08335C1.83608 6.76815 2.20373 5.47906 2.89734 4.36048C3.59095 3.24189 4.58312 2.33799 5.76273 1.75002C6.74712 1.25413 7.83504 0.997156 8.93788 1.00002H9.35566C11.0973 1.09585 12.7422 1.82899 13.9756 3.05907C15.209 4.28915 15.9441 5.92973 16.0402 7.66668V8.08335Z" stroke="#D9D9D9" stroke-width="2" stroke-linecap="round" stroke-linejoin="round"/>
</svg>
