<?xml version="1.0" standalone="no"?>
<!DOCTYPE svg PUBLIC "-//W3C//DTD SVG 20010904//EN"
 "http://www.w3.org/TR/2001/REC-SVG-20010904/DTD/svg10.dtd">
<svg version="1.0" xmlns="http://www.w3.org/2000/svg"
 width="239.000000pt" height="95.000000pt" viewBox="0 0 239.000000 95.000000"
 preserveAspectRatio="xMidYMid meet">

<g transform="translate(0.000000,95.000000) scale(0.100000,-0.100000)"
fill="#000000" stroke="none">
<path d="M1825 914 c-19 -20 -25 -38 -25 -70 0 -41 -2 -43 -31 -46 -63 -6 -67
-68 -5 -68 l35 0 3 -141 c3 -120 6 -144 20 -152 12 -8 21 -7 32 2 13 11 16 38
16 152 l0 138 31 3 c43 4 61 34 35 54 -11 8 -30 14 -43 14 -20 0 -23 5 -23 35
0 29 5 37 26 45 19 7 25 16 22 33 -5 35 -61 36 -93 1z"/>
<path d="M1570 896 c-27 -33 18 -72 48 -42 13 13 14 20 6 34 -15 23 -38 26
-54 8z"/>
<path d="M983 785 c-36 -15 -53 -41 -53 -83 0 -36 41 -82 73 -82 30 0 77 -36
77 -59 0 -74 -108 -81 -121 -7 -6 28 -34 43 -53 27 -36 -30 0 -112 61 -138 53
-22 101 -11 141 32 25 27 32 43 32 75 0 73 -34 115 -105 130 -39 8 -49 47 -13
52 29 4 37 43 11 56 -13 7 -28 6 -50 -3z"/>
<path d="M1325 791 c-63 -26 -80 -106 -31 -147 15 -13 37 -24 49 -24 36 0 67
-28 67 -60 0 -36 -23 -60 -59 -60 -32 0 -44 11 -58 55 -7 22 -16 30 -34 30
-21 0 -24 -5 -27 -38 -3 -32 2 -43 31 -72 43 -43 79 -52 131 -34 92 32 114
140 42 206 -20 18 -44 33 -55 33 -54 0 -68 31 -24 52 33 16 38 31 18 52 -18
18 -21 18 -50 7z"/>
<path d="M1570 780 c-6 -12 -9 -80 -8 -176 3 -134 5 -158 20 -167 12 -8 21 -7
32 2 13 11 16 40 16 175 0 162 -5 186 -37 186 -7 0 -17 -9 -23 -20z"/>
<path d="M2036 784 c-19 -18 -17 -22 65 -184 34 -69 62 -131 62 -138 0 -7 -15
-42 -34 -77 -27 -52 -32 -68 -23 -82 29 -46 46 -25 161 207 109 218 127 272
100 283 -23 9 -34 -5 -92 -118 -31 -60 -60 -114 -65 -119 -5 -5 -34 42 -69
111 -33 66 -67 123 -75 126 -9 4 -22 -1 -30 -9z"/>
<path d="M92 773 c-18 -9 -45 -32 -60 -51 -27 -35 -27 -36 -30 -232 -3 -178
-1 -198 14 -204 32 -12 44 12 44 95 0 44 4 79 9 79 5 0 26 -7 47 -16 49 -21
115 -12 165 20 42 28 79 96 79 144 0 65 -45 138 -102 168 -36 19 -125 17 -166
-3z m133 -57 c40 -17 65 -60 65 -112 0 -51 -53 -104 -104 -104 -52 0 -90 23
-111 66 -28 60 -7 115 60 152 27 15 49 15 90 -2z"/>
<path d="M545 776 c-17 -7 -43 -28 -58 -45 -64 -76 -57 -181 18 -250 53 -49
111 -61 183 -38 41 14 48 14 55 1 10 -17 39 -18 55 -2 15 15 16 168 2 220 -14
48 -55 97 -97 114 -41 18 -119 17 -158 0z m129 -61 c59 -28 81 -96 51 -155
-21 -41 -53 -60 -101 -60 -101 0 -150 123 -76 192 44 41 75 47 126 23z"/>
<path d="M115 160 c-3 -5 -1 -10 4 -10 6 0 11 5 11 10 0 6 -2 10 -4 10 -3 0
-8 -4 -11 -10z"/>
<path d="M370 136 c0 -31 -2 -33 -27 -28 -18 3 -30 -1 -40 -13 -30 -42 -9 -78
46 -81 l41 -2 0 79 c0 46 -4 79 -10 79 -5 0 -10 -15 -10 -34z m-2 -72 c2 -21
-2 -33 -12 -37 -26 -10 -46 4 -46 32 0 34 8 43 35 39 14 -2 21 -12 23 -34z"/>
<path d="M1420 160 c0 -5 5 -10 11 -10 5 0 7 5 4 10 -3 6 -8 10 -11 10 -2 0
-4 -4 -4 -10z"/>
<path d="M1990 160 c0 -5 5 -10 11 -10 5 0 7 5 4 10 -3 6 -8 10 -11 10 -2 0
-4 -4 -4 -10z"/>
<path d="M2369 133 c-1 -21 0 -50 1 -64 3 -47 -51 -63 -63 -19 -5 21 9 45 33
53 10 4 9 6 -5 6 -28 1 -45 -18 -45 -51 0 -31 22 -47 63 -45 27 2 27 2 27 80
0 77 -9 110 -11 40z"/>
<path d="M0 85 c0 -43 4 -75 10 -75 6 0 10 18 10 39 0 37 2 40 33 44 l32 4
-32 1 c-28 2 -33 6 -33 26 0 20 6 25 33 29 28 3 26 4 -10 5 l-43 2 0 -75z"/>
<path d="M486 148 c4 -7 16 -25 26 -40 10 -14 19 -43 19 -65 l2 -38 6 40 c4
23 17 58 30 78 12 20 18 37 12 37 -6 0 -11 -3 -11 -7 0 -5 -9 -19 -19 -32
l-19 -24 -16 31 c-9 18 -21 32 -27 32 -6 0 -7 -6 -3 -12z"/>
<path d="M1000 85 c0 -43 4 -75 10 -75 6 0 10 16 10 35 0 23 5 35 14 35 8 0
24 8 36 18 19 16 21 22 11 40 -9 16 -21 22 -46 22 l-35 0 0 -75z m65 40 c0
-13 -8 -21 -22 -23 -19 -3 -23 1 -23 23 0 22 4 26 23 23 14 -2 22 -10 22 -23z"/>
<path d="M1800 85 c0 -43 4 -75 10 -75 6 0 10 18 10 39 0 37 2 40 33 44 l32 4
-32 1 c-28 2 -33 6 -33 26 0 20 6 25 33 29 28 3 26 4 -10 5 l-43 2 0 -75z"/>
<path d="M123 60 c0 -30 2 -43 4 -28 2 16 2 40 0 55 -2 16 -4 3 -4 -27z"/>
<path d="M170 56 c0 -56 17 -53 22 4 2 27 8 36 25 38 23 3 25 -2 37 -68 2 -14
3 -2 2 25 l-1 50 -42 0 -43 1 0 -50z"/>
<path d="M608 99 c-23 -13 -23 -51 0 -72 24 -22 45 -21 65 1 45 49 -7 105 -65
71z m62 -18 c19 -36 -17 -74 -46 -50 -15 12 -19 51 -7 62 13 14 43 7 53 -12z"/>
<path d="M734 69 c2 -79 70 -81 72 -3 l1 39 -4 -37 c-7 -64 -59 -62 -66 3 l-4
39 1 -41z"/>
<path d="M850 58 c0 -26 5 -48 10 -48 6 0 10 18 10 40 0 33 4 42 23 49 19 8
18 9 -10 9 -33 -1 -33 -2 -33 -50z"/>
<path d="M1112 98 c-14 -14 -15 -47 -2 -68 5 -8 25 -15 44 -15 l36 -2 0 49 c0
27 -4 47 -8 44 -5 -3 -7 -18 -4 -34 4 -32 -17 -56 -42 -46 -25 10 -21 63 7 74
21 8 21 9 2 9 -12 1 -26 -4 -33 -11z"/>
<path d="M1237 103 c-15 -14 -6 -34 19 -43 30 -12 27 -35 -5 -34 -13 0 -18 -3
-12 -9 15 -15 46 -3 49 19 2 14 -5 24 -23 32 -31 14 -32 29 -2 35 20 4 20 4 1
6 -11 0 -24 -2 -27 -6z"/>
<path d="M1327 103 c-14 -13 -6 -30 18 -41 35 -16 34 -46 -1 -38 -17 5 -23 3
-19 -4 9 -15 41 -12 55 5 10 12 10 18 0 30 -7 8 -19 15 -26 15 -23 0 -16 28 9
33 20 4 20 4 -4 6 -14 0 -29 -2 -32 -6z"/>
<path d="M1423 60 c0 -30 2 -43 4 -28 2 16 2 40 0 55 -2 16 -4 3 -4 -27z"/>
<path d="M1480 91 c-15 -28 -12 -46 8 -64 24 -22 45 -21 65 1 20 22 22 53 5
70 -19 19 -66 15 -78 -7z m70 -10 c18 -34 -10 -68 -45 -55 -15 6 -21 55 -8 67
13 14 43 7 53 -12z"/>
<path d="M1600 66 c0 -24 5 -48 10 -51 6 -4 10 10 10 34 0 23 0 44 1 48 0 4
-4 9 -10 11 -7 2 -11 -14 -11 -42z"/>
<path d="M1655 101 c14 -5 22 -21 26 -52 l7 -44 -2 50 c-1 46 -3 50 -26 52
-22 2 -23 2 -5 -6z"/>
<path d="M1911 60 l1 -55 9 45 c5 28 5 48 -1 54 -7 7 -10 -9 -9 -44z"/>
<path d="M1948 103 c7 -3 16 -2 19 1 4 3 -2 6 -13 5 -11 0 -14 -3 -6 -6z"/>
<path d="M1993 60 c0 -30 2 -43 4 -28 2 16 2 40 0 55 -2 16 -4 3 -4 -27z"/>
<path d="M2052 98 c-28 -28 -3 -88 37 -88 10 0 25 7 32 17 13 15 12 15 -8 5
-25 -14 -53 -6 -53 14 0 10 12 14 40 14 37 0 39 2 31 23 -9 25 -59 35 -79 15z
m66 -15 c2 -9 -7 -13 -27 -13 -30 0 -39 9 -24 24 11 10 46 3 51 -11z"/>
<path d="M2172 55 c1 -42 2 -44 5 -13 8 72 63 79 63 8 0 -22 5 -40 10 -40 12
0 13 69 2 88 -5 7 -24 11 -45 10 l-37 -3 2 -50z"/>
</g>
</svg>
